<svg width="87" height="68" viewBox="0 0 87 68" fill="none" xmlns="http://www.w3.org/2000/svg">
<path d="M67.6343 67.26C71.5114 67.26 74.8829 66.2486 77.7486 64.2257C80.6143 62.0343 82.8057 59.0843 84.3229 55.3757C85.84 51.6671 86.5986 47.4528 86.5986 42.7329C86.5986 37.0014 85.6714 31.5229 83.8171 26.2971C81.7943 20.9028 78.76 15.93 74.7143 11.3786C70.6686 6.82713 65.4429 3.03427 59.0371 -1.51089e-05L48.4171 9.86142C52.9686 11.3786 57.0143 13.4857 60.5543 16.1828C63.9257 18.88 66.7071 21.9143 68.8986 25.2857C70.9214 28.6571 72.3543 32.1128 73.1971 35.6529L72.1857 36.1586C71.5114 35.6529 70.6686 35.2314 69.6571 34.8943C68.6457 34.5571 67.1286 34.3886 65.1057 34.3886C63.0829 34.3886 60.9757 34.9786 58.7843 36.1586C56.5929 37.3386 54.8229 39.1086 53.4743 41.4686C51.9571 43.66 51.1986 46.61 51.1986 50.3186C51.1986 53.3528 51.9571 56.1343 53.4743 58.6628C54.8229 61.1914 56.7614 63.2986 59.29 64.9843C61.8186 66.5014 64.6 67.26 67.6343 67.26ZM20.0971 67.26C23.9743 67.26 27.3457 66.2486 30.2114 64.2257C33.0771 62.0343 35.2686 59.0843 36.7857 55.3757C38.3029 51.6671 39.0614 47.4528 39.0614 42.7329C39.0614 37.0014 38.1343 31.5229 36.28 26.2971C34.2571 20.9028 31.2229 15.93 27.1771 11.3786C23.1314 6.82713 17.9057 3.03427 11.5 -1.51089e-05L0.879993 9.86142C5.43142 11.3786 9.47714 13.4857 13.0171 16.1828C16.3886 18.88 19.17 21.9143 21.3614 25.2857C23.3843 28.6571 24.8171 32.1128 25.66 35.6529L24.6486 36.1586C23.9743 35.6529 23.1314 35.2314 22.12 34.8943C21.1086 34.5571 19.5914 34.3886 17.5686 34.3886C15.5457 34.3886 13.4386 34.9786 11.2471 36.1586C9.05571 37.3386 7.28571 39.1086 5.93714 41.4686C4.42 43.66 3.66142 46.61 3.66142 50.3186C3.66142 53.3528 4.42 56.1343 5.93714 58.6628C7.28571 61.1914 9.22428 63.2986 11.7529 64.9843C14.2814 66.5014 17.0629 67.26 20.0971 67.26Z" fill="#5D5FEF"/>
</svg>
